# xmcd
#
# Track frame offsets:
#	150
#	16669
#	32670
#	46588
#	67493
#	86750
#	104452
#	124462
#	141166
#	159410
#	177734
#	194807
#	210967
#	231245
#	246398
#	262782
#	279211
#	294503
#	308516
#	318651
#	339718
#
# Disc length: 4727 seconds
#
# Revision: 1
# Processed by: cddbd v1.5.2PL0 Copyright (c) Steve Scherf et al.
# Submitted via: EasyCDDAExtractor 8.2.1.1
#
DISCID=3a127515
DTITLE=Various Artist - Вайнах Хит - 2
DYEAR=1900
DGENRE=
TTITLE0=Юрт-Да  - Юрт-Да вернулся
TTITLE1=DJ Ramazek - 3260i
TTITLE2=Дуэт "Хема" - Къонахий
TTITLE3=Бандитос - Мерс
TTITLE4=Милана Балаева - Хаза кIант
TTITLE5=Альви - Герои белой Чечни
TTITLE6=Марха Тарамова - Муха йоI ю со
TTITLE7=Ваха Берсанукаев - Сердце странника
TTITLE8=Бислан Суипов - Безаман зезаг
TTITLE9=Aza - Как ей нелегко
TTITLE10=Ринат Каримов - Девушке
TTITLE11=Троя - Белый цветок
TTITLE12=Альви - Прощай
TTITLE13=Элина Шоипова - Хьан хаъ
TTITLE14=Иса Элибаев - Ибрагим
TTITLE15=Кюре - Ты в моем сердце
TTITLE16=Дуэт "Хема" - Боьлху ши бIаьрг
TTITLE17=Бислан Суипов - Дайн оьзда той
TTITLE18=Тимур Жамалаев - Marshalla
TTITLE19=Шамхан - Огонь любви
TTITLE20=Ширвани Мурдалов - Салам алейкум
EXTD=
EXTT0=
EXTT1=
EXTT2=
EXTT3=
EXTT4=
EXTT5=
EXTT6=
EXTT7=
EXTT8=
EXTT9=
EXTT10=
EXTT11=
EXTT12=
EXTT13=
EXTT14=
EXTT15=
EXTT16=
EXTT17=
EXTT18=
EXTT19=
EXTT20=
PLAYORDER=
